<?xml version="1.0" standalone="no"?>
<!DOCTYPE svg PUBLIC "-//W3C//DTD SVG 20010904//EN"
 "http://www.w3.org/TR/2001/REC-SVG-20010904/DTD/svg10.dtd">
<svg version="1.0" xmlns="http://www.w3.org/2000/svg"
 width="1280.000000pt" height="661.000000pt" viewBox="0 0 1280.000000 661.000000"
 preserveAspectRatio="xMidYMid meet">
<g transform="translate(0.000000,661.000000) scale(0.100000,-0.100000)"
fill="#000000" stroke="none">
<path d="M3900 6600 c-30 -4 -102 -13 -160 -20 -501 -55 -1016 -257 -1409
-553 -126 -96 -316 -279 -411 -398 -131 -164 -244 -364 -302 -533 l-23 -68
-139 -70 c-780 -391 -1215 -766 -1234 -1062 -5 -86 7 -136 49 -200 156 -234
720 -349 1509 -306 427 23 920 83 1335 161 982 186 2148 548 2825 876 85 42
200 97 255 123 55 26 165 83 245 127 529 293 836 548 954 793 37 77 41 92 41
165 0 67 -4 89 -27 135 -86 176 -338 286 -768 336 -184 22 -634 24 -917 5
l-202 -13 -76 62 c-234 191 -547 330 -892 395 -220 42 -535 63 -653 45z"/>
<path d="M5340 2904 c-59 -50 -89 -150 -66 -221 6 -19 0 -25 -48 -48 -155 -73
-197 -279 -73 -361 45 -29 45 -40 0 -132 -18 -38 -40 -64 -75 -89 -72 -52 -43
-66 103 -49 64 8 66 8 88 -20 28 -36 23 -81 -20 -173 -16 -35 -27 -66 -25 -69
6 -5 64 15 151 52 80 34 126 33 216 -5 41 -17 128 -51 194 -74 l120 -43 1 -33
c0 -19 1 -40 2 -46 3 -22 45 -14 73 13 35 33 52 27 81 -28 17 -34 23 -62 25
-131 2 -97 6 -107 34 -107 27 0 55 51 74 134 9 38 21 79 28 92 14 27 115 134
126 134 4 0 15 -26 24 -58 29 -106 105 -187 199 -212 49 -14 111 2 145 36 41
41 17 49 -71 25 -99 -27 -118 -26 -156 5 -38 32 -56 67 -86 164 -19 60 -22 88
-17 141 14 163 -72 344 -220 457 -59 46 -238 127 -369 167 -49 15 -88 31 -88
35 0 3 18 21 40 38 47 38 96 100 86 109 -4 4 -30 -5 -59 -19 -57 -29 -156 -52
-202 -46 -21 2 -34 11 -43 31 -17 35 -67 67 -105 67 -43 0 -63 15 -81 60 -25
62 -21 115 14 177 33 59 28 66 -20 27z"/>
<path d="M80 344 c0 -13 -14 -39 -31 -59 -18 -20 -30 -37 -28 -39 50 -44 310
-86 659 -105 96 -6 355 -13 575 -16 220 -3 515 -13 655 -20 140 -8 473 -24
740 -35 267 -11 514 -22 550 -25 36 -3 253 -10 482 -15 229 -5 454 -14 500
-20 58 -8 701 -10 2163 -7 1703 2 2159 6 2515 19 239 9 597 22 795 28 198 6
416 15 485 20 69 5 301 14 515 20 733 19 1040 31 1250 45 116 8 329 22 475 31
276 17 391 31 397 50 2 6 -11 18 -29 25 -27 11 -145 14 -648 13 -763 -1 -1365
-8 -1490 -19 -71 -5 -128 -3 -225 10 -112 14 -342 24 -675 29 -58 0 -103 -5
-142 -17 -66 -21 -121 -16 -313 30 -141 34 -200 35 -242 6 -37 -27 -80 -29
-190 -8 -104 20 -152 19 -204 -5 -59 -26 -75 -26 -262 16 -198 44 -248 43
-307 -5 -75 -60 -118 -61 -360 -11 -210 43 -227 45 -240 21 -14 -27 -67 -27
-219 -1 -149 26 -172 26 -201 -5 -61 -65 -215 -79 -351 -32 -106 38 -149 41
-272 23 -134 -20 -204 -20 -261 -1 -40 14 -50 14 -103 0 -47 -13 -90 -14 -223
-9 -137 5 -174 4 -219 -10 -68 -20 -133 -20 -234 -1 -97 19 -164 19 -198 1
-48 -25 -76 -26 -154 -6 -90 23 -140 25 -174 6 -21 -12 -31 -11 -75 9 -99 44
-189 40 -290 -11 l-52 -26 -129 41 c-134 43 -245 63 -245 43 0 -6 14 -23 32
-39 91 -82 92 -84 52 -109 -34 -23 -171 -14 -352 21 -156 30 -238 55 -324 95
-86 41 -118 39 -176 -9 -52 -43 -91 -65 -99 -57 -3 3 0 19 6 35 7 16 11 42 9
57 -7 61 -119 54 -295 -16 -41 -17 -86 -30 -100 -30 -13 0 -73 19 -131 43 -95
37 -116 42 -189 42 -74 0 -84 -2 -110 -26 -60 -56 -102 -61 -229 -28 -43 11
-113 29 -154 39 -73 19 -161 26 -173 14 -3 -3 -1 -14 5 -24 6 -9 8 -25 4 -35
-6 -16 -15 -17 -74 -12 -37 4 -139 22 -227 42 -88 19 -181 35 -208 35 -44 0
-49 -3 -75 -39 -49 -71 -62 -72 -238 -13 -84 29 -171 52 -193 52 -39 0 -40 -1
-43 -37 -3 -35 -6 -38 -36 -41 -18 -2 -84 8 -147 22 -63 14 -132 26 -155 26
-38 0 -40 -2 -40 -29 0 -40 -24 -63 -58 -55 -15 4 -78 32 -139 64 -108 54
-113 56 -113 34z"/>
</g>
</svg>
